<?xml version="1.0" encoding="UTF-8" standalone="no"?>
<!-- Generator: Gravit.io -->
<svg xmlns="http://www.w3.org/2000/svg" xmlns:xlink="http://www.w3.org/1999/xlink" style="isolation:isolate" viewBox="0 0 1730 1000" width="1730pt" height="1000pt"><defs>
<radialGradient id="StarGradient">
        <stop offset="0%" stop-color="#a44ccf00"/>
        <stop offset="100%" stop-color="#a44ccfff"/>
      </radialGradient>
<clipPath id="_clipPath_VYCxkCAtllid45NGVHigRigZichpvYA4"><rect width="1730" height="1000"/></clipPath></defs><g clip-path="url(#_clipPath_VYCxkCAtllid45NGVHigRigZichpvYA4)"><clipPath id="_clipPath_l45U9e5lPp9Iqe3d83mjfdxbNX1M2Ffs"><rect x="0" y="0" width="1730" height="1000" transform="matrix(1,0,0,1,0,0)" fill="rgb(255,255,255)"/></clipPath><g clip-path="url(#_clipPath_l45U9e5lPp9Iqe3d83mjfdxbNX1M2Ffs)"><g><g><path d=" M 1155.45 82.708 L 1165.581 309.551 L 1278.114 332.183 L 1328.906 229.246 L 1155.45 82.708 Z  M 1617.703 243.215 L 1413.134 271.367 L 1368.228 365.878 L 1470.494 388.028 L 1617.703 243.215 Z  M 1462.55 707.292 L 1452.419 480.449 L 1339.886 457.817 L 1289.094 560.754 L 1462.55 707.292 Z  M 1000.297 546.785 L 1204.866 518.633 L 1249.772 424.122 L 1147.506 401.972 L 1000.297 546.785 Z " fill-rule="evenodd" class="purpTwo" fill="url(#StarGradient)"/><path d=" M 1281.63 408.458 C 1274.324 393.599 1280.456 375.605 1295.314 368.299 C 1310.173 360.993 1328.167 367.125 1335.473 381.984 C 1342.779 396.842 1336.647 414.837 1321.788 422.142 C 1306.93 429.448 1288.935 423.316 1281.63 408.458 Z " class="purpTwo" fill="#a44ccf"/></g><path d=" M 950.18 579.57 C 945.97 582.57 942.25 585.76 938 587.94 C 931.39 591.34 927.04 589.84 923.39 583.33 C 919.83 576.98 916.55 570.48 913.32 563.95 C 908.37 553.94 903.32 543.96 898.75 533.77 C 891.1 516.73 883.13 499.78 876.51 482.33 C 869.54 463.95 863.98 445.04 857.83 426.35 C 856.29 421.67 854.73 417 853.42 412.26 C 852.69 409.62 851.56 409.13 849.15 410.34 C 834.92 417.52 819.98 421.67 803.86 420.5 C 800.47 420.26 801.46 422.46 801.96 424.11 C 803.61 429.66 805.45 435.14 807.09 440.69 C 812.29 458.29 817.7 475.84 822.51 493.55 C 826.7 509 830.58 524.56 833.78 540.24 C 835.24 547.42 835.26 555.02 834.94 562.39 C 834.66 568.73 831.39 574.32 826.39 578.28 C 820.53 582.91 814.49 587.43 808.03 591.11 C 801.77 594.67 796.78 593.22 793.27 586.9 C 788.47 578.26 784.08 569.34 780.22 560.25 C 775.65 549.49 771.36 538.57 767.83 527.44 C 764.33 516.42 761.9 505.06 759.02 493.85 C 756.23 482.97 753.27 472.12 750.73 461.18 C 748.78 452.78 747.45 444.24 745.72 435.79 C 744.36 429.17 742.43 422.65 741.42 415.98 C 739.28 401.85 737.54 387.66 735.72 373.49 C 735.01 367.98 738.34 365.09 743.01 363.72 C 752.78 360.85 762.74 360.62 772.73 362.58 C 778.07 363.63 781.04 367.24 783.61 371.83 C 791.34 385.58 802.8 395.97 815.4 405.09 C 821.02 409.15 823.44 408.75 828.55 403.86 C 833.92 398.7 839.19 393.36 843.84 387.57 C 845.83 385.09 845.8 381.09 847.33 378.1 C 848.72 375.4 850.48 371.95 852.95 370.91 C 861.43 367.34 870.54 364.72 879.48 368.82 C 883.96 370.87 888.91 374.05 891.3 378.1 C 900.12 393.04 908.1 408.48 916.12 423.87 C 922.83 436.76 929.36 449.75 935.58 462.88 C 940.44 473.13 945.02 483.55 949.15 494.11 C 952.88 503.65 956.79 513.3 958.87 523.26 C 961.11 533.99 962.29 545.15 962.13 556.1 C 961.98 565.11 955.93 572.36 950.18 579.57 Z  M 687.24 594.25 C 672.73 599.24 658.68 604.48 644.33 608.69 C 638.37 610.44 631.78 610.35 625.46 610.45 C 619.52 610.54 614.4 607.72 612.29 602.13 C 608.69 592.58 605.66 582.8 602.92 572.96 C 600.18 563.14 597.79 553.2 595.82 543.2 C 594.04 534.16 593.08 524.95 591.67 515.83 C 590.59 508.86 589.16 501.94 588.28 494.95 C 587.35 487.48 586.62 479.97 586.28 472.46 C 585.75 460.6 585.65 448.72 585.32 436.85 C 584.87 420.59 585.66 404.42 588.94 388.45 C 591.07 378.07 598.78 372.69 607.98 370.22 C 623.07 366.17 638.34 362.48 653.76 360.12 C 667.26 358.05 680.72 360.58 693.45 365.77 C 695.39 366.56 696.78 368.68 698.43 370.18 C 696.63 371.38 694.98 372.99 693 373.72 C 685.65 376.41 678.03 378.41 670.82 381.41 C 654.01 388.42 651.64 393.14 650.88 411.52 C 650.27 426.27 652.08 441.15 653.12 455.94 C 653.64 463.42 654.72 470.86 655.77 478.29 C 656.26 481.76 657.34 483.93 661.97 482.02 C 678.85 475.05 696.58 470.97 714.52 467.91 C 716.64 467.55 719.99 468.78 721.2 470.43 C 722.14 471.7 721.42 475.74 720.05 476.88 C 713.33 482.48 706.6 488.34 699.02 492.57 C 688.28 498.54 676.75 503.08 665.66 508.46 C 664.31 509.11 662.57 511.35 662.81 512.5 C 665.41 525.3 668.33 538.03 671.22 550.76 C 671.91 553.82 672.74 556.85 673.63 559.87 C 675.29 565.55 676.91 571.25 678.91 576.81 C 679.18 577.55 681.83 578.2 682.92 577.76 C 688.63 575.45 694.17 572.72 699.82 570.25 C 715.99 563.19 732.16 556.13 748.41 549.25 C 750.8 548.24 753.6 547.9 756.22 547.82 C 757.63 547.77 759.09 548.92 760.52 549.52 C 759.89 550.81 759.61 552.56 758.59 553.31 C 753.51 557.08 748.49 561.04 742.99 564.1 C 724.62 574.29 706.07 584.12 687.24 594.25 Z  M 1478.37 356.23 C 1483.65 358.34 1484.41 361.94 1482.8 366.55 C 1479.35 376.42 1475.66 386.21 1472.58 396.19 C 1465.29 419.8 1460.77 444.01 1458.9 468.62 C 1457.98 480.66 1457.48 492.9 1458.56 504.88 C 1459.46 514.91 1461.03 525.27 1466.86 534.16 C 1470.98 540.44 1471.59 540.59 1477.74 536.71 C 1490.73 528.51 1503.89 520.63 1519.47 518.32 C 1522.75 517.83 1526.12 517.3 1529.39 517.51 C 1531.68 517.66 1533.89 519.04 1536.13 519.87 C 1535.14 522.2 1534.7 525.07 1533.04 526.75 C 1529.2 530.64 1525.02 534.31 1520.53 537.44 C 1496.06 554.51 1468.44 562.51 1438.98 564.36 C 1426.61 565.14 1414.99 561.54 1406.07 552.66 C 1397.84 544.46 1395.3 533.54 1393.91 522.24 C 1391.94 506.25 1393.37 490.31 1396.43 474.81 C 1400.62 453.59 1406.16 432.57 1412.35 411.84 C 1416.49 398 1422.3 384.59 1428.3 371.4 C 1431.13 365.18 1435.68 359.53 1440.35 354.46 C 1442.53 352.1 1447.04 350.35 1450.2 350.74 C 1459.56 351.89 1468.76 354.23 1478.37 356.23 Z  M 1139.43 478.28 C 1141.93 465.15 1143.99 452.36 1146.94 439.78 C 1149.37 429.44 1152.28 419.13 1156.02 409.2 C 1161.46 394.76 1166.39 380.02 1175.09 367.02 C 1176.28 365.24 1177.1 363.22 1178.2 361.37 C 1183.49 352.57 1191.38 349.47 1201.22 351.5 C 1208.04 352.91 1214.8 354.71 1221.49 356.65 C 1226.2 358.02 1227.5 361.26 1225.89 365.98 C 1222.46 376.01 1218.86 386.01 1216.02 396.22 C 1207.77 425.91 1202.19 456.06 1202.52 487.01 C 1202.64 497.89 1202.88 508.88 1204.62 519.57 C 1205.61 525.67 1209.55 531.34 1212.49 537.04 C 1214.02 540 1216.31 539.62 1219.18 538.05 C 1229.65 532.31 1240.02 526.22 1251.01 521.64 C 1257.59 518.9 1265.22 518.43 1272.45 517.58 C 1274.71 517.31 1277.22 519.11 1279.61 519.97 C 1278.45 522.41 1277.9 525.56 1276.03 527.15 C 1270.1 532.19 1263.84 536.89 1257.42 541.29 C 1234.35 557.09 1208.07 562.64 1180.77 563.99 C 1169.75 564.53 1159.09 561.14 1150.98 553.43 C 1144.76 547.51 1140.37 539.81 1139.29 530.97 C 1138.11 521.3 1136.85 511.58 1136.79 501.87 C 1136.75 494.16 1138.45 486.43 1139.43 478.28 Z  M 1330.51 547.5 C 1322.19 541.47 1320.38 532.33 1318.67 523.68 C 1314.04 500.28 1310.18 476.72 1306.01 453.22 C 1305.08 447.97 1307.04 444.37 1312.23 442.95 C 1317.83 441.41 1323.45 439.71 1329.17 438.9 C 1337.37 437.73 1339.34 439.21 1341.9 447.16 C 1344.6 455.54 1347.46 463.89 1349.59 472.42 C 1353.66 488.7 1357.43 505.06 1361.03 521.45 C 1363.63 533.28 1361.25 538.21 1350.46 543.72 C 1344.39 546.82 1338.06 549.66 1330.51 547.5 Z  M 1271.42 471.96 C 1263.52 478.52 1256.42 485.74 1246.09 487.69 C 1234.64 489.85 1223.54 487.72 1212.7 484.29 C 1207.63 482.69 1207.43 477.55 1211.57 473.09 C 1221.2 462.69 1233.74 458.89 1247.23 457.85 C 1253.63 457.35 1260.2 457.89 1266.58 458.76 C 1276.62 460.12 1277.85 463.67 1271.42 471.96 Z  M 1086.62 435.57 C 1091.75 448.39 1097.25 460.72 1101.48 473.46 C 1107.02 490.15 1111.7 507.14 1116.46 524.08 C 1119.33 534.31 1122.17 544.59 1124.08 555.02 C 1125.91 565.02 1124.3 574.77 1117.01 582.55 C 1115.53 584.13 1112.32 585.15 1110.13 584.85 C 1099.54 583.43 1093.72 575.94 1089.57 567.04 C 1083.14 553.27 1076.65 539.5 1070.87 525.44 C 1064.34 509.55 1058.61 493.33 1052.42 477.29 C 1049.98 470.95 1050.18 471.64 1044.33 474.62 C 1034.73 479.51 1024.73 483.67 1014.73 487.72 C 1011.86 488.88 1010.7 489.88 1010.36 493.18 C 1008.8 508.38 1007.05 523.57 1004.76 538.67 C 1003.82 544.89 999.76 547.9 993.52 548.08 C 991.84 548.13 989.04 546.3 988.61 544.79 C 987.61 541.35 987.39 537.57 987.47 533.94 C 988.13 506.13 988.12 478.28 989.92 450.54 C 991.66 423.59 997.81 397.24 1004.64 371.1 C 1006.85 362.64 1007.75 353.84 1009.58 345.27 C 1009.89 343.82 1011.97 341.59 1013.1 341.67 C 1021.33 342.21 1029.79 342.32 1037.62 344.54 C 1041.33 345.59 1044.66 350.51 1046.72 354.43 C 1055.01 370.16 1062.83 386.16 1070.66 402.13 C 1076.04 413.12 1081.17 424.23 1086.62 435.57 Z  M 1023.69 399.45 C 1030.51 417.59 1037.18 435.4 1043.84 453.2 C 1044.13 453.97 1044.43 454.75 1044.6 455.55 C 1046.18 462.85 1046.14 462.77 1039.2 466.15 C 1031.28 470.01 1023.4 473.97 1015.58 478.02 C 1012.43 479.65 1010.89 479.84 1011.15 475.4 C 1012.6 450.15 1015.67 425.14 1021.54 400.51 C 1021.68 399.92 1022.85 399.58 1023.69 399.45 Z  M 1684.55 571.09 C 1684.34 571.8 1684.26 572.13 1684.14 572.44 C 1682.1 577.72 1680.33 584.33 1674.16 585.03 C 1666.94 585.85 1660.2 582.1 1656.33 575.8 C 1651.33 567.65 1647.11 558.99 1642.98 550.34 C 1638.42 540.81 1634.08 531.16 1630.12 521.37 C 1625.42 509.74 1621.23 497.89 1616.8 486.14 C 1615.23 481.96 1613.75 477.73 1611.9 473.68 C 1611.58 472.98 1609.14 472.34 1608.51 472.81 C 1598.39 480.22 1587.07 484.96 1575.03 488.07 C 1572.01 488.85 1571.94 490.67 1571.66 493.21 C 1569.99 508.22 1568.16 523.22 1566.18 538.19 C 1565.37 544.35 1561.1 547.2 1555.28 548.19 C 1552.14 548.72 1549.82 547.91 1549.56 544.43 C 1549.12 538.47 1548.5 532.49 1548.68 526.53 C 1549.48 499.41 1549.71 472.24 1551.71 445.2 C 1553.88 415.92 1561.56 387.54 1568.91 359.18 C 1569.98 355.05 1570.42 350.69 1570.56 346.42 C 1570.66 343.35 1571.56 341.32 1574.67 341.55 C 1582.58 342.14 1590.78 342.02 1598.22 344.29 C 1602.24 345.52 1605.87 350.56 1608.09 354.73 C 1616.43 370.43 1623.92 386.57 1632.09 402.36 C 1644.29 425.96 1654.34 450.48 1663.12 475.47 C 1668.87 491.84 1673.25 508.69 1677.98 525.41 C 1680.69 534.98 1683.38 544.62 1685.1 554.4 C 1686.01 559.64 1684.86 565.25 1684.55 571.09 Z  M 1572.63 478.63 C 1573.31 451.89 1576.83 425.88 1582.81 400.2 C 1582.99 399.43 1583.5 398.75 1583.86 398.02 C 1584.36 398.78 1585.03 399.48 1585.34 400.31 C 1591.26 416.31 1597.14 432.32 1603 448.35 C 1604.36 452.07 1605.77 455.79 1606.77 459.62 C 1607.08 460.8 1606.47 463.12 1605.59 463.57 C 1595.22 468.9 1584.71 473.99 1574.23 479.1 C 1573.85 479.28 1573.27 479.05 1572.63 478.63 Z  M 367.97 73.04 C 399.31 79.2 428.67 89.89 457.27 102.94 C 475.86 111.43 493.39 121.73 508.83 134.98 C 517.3 142.24 524.4 151.23 531.41 160 C 536.23 166.03 540.67 172.65 543.82 179.66 C 547.81 188.53 550.59 197.98 553.41 207.32 C 558.65 224.62 558.96 242.53 558.14 260.32 C 557.59 272.32 555.44 284.29 553.25 296.14 C 552.08 302.46 549.11 308.42 547.28 314.64 C 545.04 322.23 543.35 329.99 541.03 337.55 C 539.6 342.22 537.58 346.74 535.57 351.21 C 532.78 357.42 529.76 363.53 526.8 369.67 C 525.56 372.25 524.32 374.84 522.93 377.34 C 519.81 382.93 516.58 388.45 513.43 394.02 C 510.24 399.65 507.09 405.3 503.91 410.94 C 503.51 411.65 503.13 412.39 502.64 413.04 C 495.43 422.65 488.26 432.3 480.94 441.82 C 479.33 443.91 477.11 445.52 475.27 447.44 C 468.05 454.97 460 461.89 453.91 470.25 C 447.2 479.46 437.53 484.96 429.54 492.49 C 419.28 502.16 407.55 510.34 396.12 518.71 C 387.36 525.12 378.04 530.77 369.06 536.9 C 367.78 537.77 367.07 539.46 366.09 540.77 C 367.43 541.12 368.75 541.68 370.11 541.79 C 400.8 544.29 430.69 551.09 460.66 557.76 C 484.86 563.14 508.27 570.6 531.18 579.8 C 549.24 587.06 567.63 593.73 584.96 602.47 C 603.93 612.04 622.07 623.33 640.14 634.57 C 651.4 641.58 662.12 649.53 672.59 657.7 C 682.92 665.75 693.04 674.17 702.5 683.22 C 714.02 694.25 725.35 705.78 733.2 719.75 C 738.68 729.5 739.9 740.73 735.13 751.42 C 732.1 758.21 728.11 764.63 724.1 770.92 C 720.73 776.2 716.69 776.82 711.58 773.06 C 700.73 765.05 689.97 756.89 679.31 748.63 C 664.3 737.01 649.01 725.71 634.61 713.37 C 625.86 705.87 618.6 696.64 610.61 688.25 C 607.87 685.37 604.99 682.64 602.11 679.9 C 596.61 674.67 591.27 669.24 585.48 664.35 C 575.06 655.58 564.66 646.74 553.68 638.71 C 544.58 632.05 535.05 625.77 525.04 620.62 C 506.11 610.89 486.94 601.53 467.41 593.06 C 445.13 583.39 421.83 576.78 397.43 575.17 C 389.32 574.63 381.14 575.38 372.99 575.24 C 346.37 574.79 320.23 579.83 293.84 581.98 C 288.69 582.4 283.52 582.84 278.35 582.91 C 275.24 582.96 274.39 584.1 274.46 587.1 C 274.69 595.97 274.54 604.86 274.71 613.73 C 274.88 622.38 275.52 631.03 275.47 639.68 C 275.44 644.99 274.47 650.3 274.03 655.62 C 273.73 659.24 273.68 662.87 273.4 666.49 C 272.47 678.39 271.54 690.29 270.49 702.18 C 269.68 711.24 268.94 720.33 267.68 729.34 C 266.47 737.99 264.39 746.52 263.15 755.16 C 261.76 764.78 261.04 774.5 259.7 784.13 C 259.04 788.84 257.61 793.45 256.6 798.12 C 254.01 810.16 251.92 822.32 248.75 834.2 C 246.88 841.18 243.6 847.85 240.47 854.43 C 234.67 866.62 227.28 877.8 218.04 887.71 C 202.96 903.87 186.73 918.66 167.63 930.04 C 166.91 930.47 166.24 930.97 165.51 931.37 C 158.28 935.41 156.23 935.02 151.74 928.04 C 142.84 914.2 137.43 899.15 138.26 882.54 C 138.81 871.41 140.38 860.33 141.63 849.24 C 142.47 841.76 143.34 834.26 144.6 826.84 C 145.92 819.01 147.88 811.28 149.25 803.46 C 150.16 798.29 150.52 793.03 151.14 787.82 C 151.93 781.09 152.64 774.34 153.56 767.63 C 154.76 758.88 157.41 750.12 157.13 741.44 C 156.72 728.47 159.46 715.92 160.14 703.14 C 160.62 694.16 161.42 685.2 161.73 676.21 C 161.93 670.45 161.25 664.67 161.4 658.91 C 161.57 652.22 162.54 645.55 162.59 638.86 C 162.65 629.6 161.98 620.34 162 611.08 C 162.01 602.67 162.78 594.26 162.73 585.86 C 162.7 580.71 161.56 575.58 161.25 570.42 C 160.95 565.34 161.41 560.19 160.92 555.14 C 159.86 544.24 158.36 533.39 157.17 522.5 C 156.96 520.58 157.72 518.56 157.52 516.64 C 156.44 506.31 155.56 495.95 153.92 485.7 C 152.01 473.71 149.59 461.79 147.03 449.92 C 145.51 442.88 143.16 436.02 141.45 429.02 C 139.87 422.57 139 415.94 137.18 409.57 C 134.22 399.19 130.7 388.96 127.5 378.64 C 126.58 375.68 125.82 372.65 125.17 369.62 C 121.64 353.11 118.09 336.61 114.74 320.07 C 113.73 315.06 112.96 309.95 112.73 304.86 C 112.45 298.72 115.06 295.78 121.87 293.61 C 133.48 289.91 145.41 289.03 157.5 290.06 C 164.96 290.69 171.68 292.84 177.63 297.8 C 183.46 302.67 190.34 306.3 196.02 311.32 C 200.94 315.66 204.89 321.13 209.13 326.2 C 211.67 329.24 213.82 332.61 216.38 335.63 C 224.49 345.22 230.45 356.1 235.75 367.4 C 239.38 375.13 243.7 382.58 246.72 390.54 C 249.55 397.99 251.21 405.91 253.16 413.68 C 255.24 421.98 257.2 430.32 258.96 438.69 C 260.67 446.78 262 454.94 263.62 463.05 C 265 469.95 266.73 476.78 267.95 483.7 C 268.79 488.45 268.96 493.32 269.53 498.13 C 269.98 501.93 270.99 502.09 273.99 499.42 C 278.01 495.84 282.92 493.29 287.24 490.01 C 294.79 484.29 302.27 478.48 309.6 472.48 C 317.78 465.79 325.8 458.9 333.78 451.97 C 336.4 449.69 338.67 447 341.09 444.49 C 347.67 437.66 354.46 431 360.76 423.92 C 365.72 418.34 370.15 412.29 374.7 406.35 C 381.3 397.73 387.99 389.17 394.23 380.3 C 397.95 375.01 401 369.23 404.11 363.53 C 409.2 354.21 414.26 344.85 419.01 335.35 C 421.28 330.81 422.63 325.81 424.74 321.18 C 426.59 317.11 429.02 313.3 430.99 309.28 C 432.13 306.96 432.98 304.47 433.77 302 C 435.95 295.17 438.19 288.35 440.11 281.44 C 441.77 275.47 443.4 269.46 444.38 263.36 C 446.26 251.59 448.23 239.78 449.1 227.9 C 449.7 219.67 448.91 211.27 448.04 203.02 C 446.96 192.83 445.43 182.66 443.53 172.59 C 442.78 168.63 440.63 164.91 438.91 161.17 C 436.92 156.82 435.03 152.37 432.53 148.31 C 427.33 139.87 421.59 131.78 413.83 125.41 C 407.85 120.51 402.37 114.47 395.57 111.23 C 384.79 106.1 372.68 107.25 361.1 108.49 C 344.74 110.24 328.37 112.25 312.21 115.29 C 302.51 117.12 293.16 120.96 283.75 124.19 C 276.54 126.66 269.36 129.3 262.42 132.41 C 256.67 134.98 251.32 138.43 245.71 141.33 C 236.63 146.03 227.29 150.25 218.44 155.34 C 213.1 158.41 208.5 162.75 203.55 166.49 C 202.63 167.19 201.59 167.73 200.62 168.38 C 197.23 170.64 193.68 172.7 190.5 175.22 C 180.59 183.05 170.54 190.74 161.08 199.09 C 152.5 206.66 144.4 214.82 136.49 223.1 C 131.08 228.76 124.49 232.2 117.24 233.94 C 101.59 237.7 85.68 237.51 70.14 233.56 C 60.21 231.04 50.59 227.17 41.03 223.4 C 37.39 221.96 34.04 219.42 31.07 216.8 C 27.49 213.63 25.32 210.79 27.87 204.56 C 30.71 197.63 33.63 191.31 38.94 186.17 C 45.93 179.39 53.12 172.81 60.16 166.08 C 62.52 163.82 64.49 161.14 66.95 158.99 C 74.45 152.42 81.81 145.65 89.76 139.66 C 98.05 133.42 106.92 127.95 115.6 122.23 C 120.43 119.05 125.37 116.03 130.3 113 C 132.12 111.89 134.05 110.97 135.93 109.95 C 143.95 105.62 151.93 101.23 159.99 97 C 163.18 95.32 166.53 93.92 169.86 92.53 C 182.63 87.17 195.55 82.34 208.85 78.26 C 223.81 73.67 238.9 69.69 254.31 67.75 C 275.94 65.04 297.76 63.04 319.59 65.99 C 335.6 68.14 351.57 70.62 367.97 73.04 Z " fill-rule="evenodd" fill="#b296ff"/></g></g></g></svg>